<svg width="1497" height="705" viewBox="0 0 1497 705" fill="none" xmlns="http://www.w3.org/2000/svg">
<path d="M1402.98 527.481C1366.03 569.565 1278.52 608.396 1246.97 570.65M1402.98 527.481C1457.86 461.534 1489.3 364.544 1421.13 322.047C1343.51 273.65 1184.09 495.375 1246.97 570.65M1402.98 527.481C1348.09 593.428 1276.79 604.925 1246.97 570.65M1246.97 570.65C1217.15 536.375 1227.09 504.052 1246.54 458.28C1222.31 485.765 1087.25 628.983 1013.45 639.829C992.798 642.866 973.718 627.421 971.817 606.53C957.232 447.129 1177.22 182.452 1287.59 167.809C1304.66 167.809 1317.41 175.836 1320 188.418C1322.38 265.211 1075.27 420.23 1007.64 454.722C971.795 498.846 794.504 713.022 720.454 659.461C712.135 653.452 707.058 643.972 705.545 633.798C674.063 422.768 975.533 57.0444 1125.34 37C1148.03 37 1165.1 47.8465 1168.55 64.5502C1171.8 166.942 860.213 364.782 766.652 390.163C735.969 444.613 608.267 592.56 537.826 584.967C474.083 585.401 446.642 520.756 460.687 461.751C476.892 371.073 545.605 260.005 636.141 257.402C657.965 257.402 673.522 266.079 682.382 283C705.934 356.756 623.609 428.126 547.766 428.56C521.836 428.343 474.516 416.412 474.516 416.412C385.708 535.941 351.568 567.613 333.633 569.999C311.377 570.867 308.352 552.211 311.594 529.867C315.051 511.862 333.633 474.333 350.271 439.624C383.547 370.857 390.03 354.804 382.035 342.656C342.709 293.195 228.188 504.486 189.942 551.343C187.998 552.211 186.269 552.645 185.189 553.078C187.781 502.534 246.77 399.925 245.69 356.973C245.474 345.476 231.645 338.317 222.138 344.825C148.672 392.55 107.185 463.703 76.7179 515.116C64.8337 535.29 48.4118 563.057 40.8491 566.094C38.0401 565.01 37.3919 564.359 37.3919 564.359C36.7437 563.057 35.8794 556.549 44.0903 529.867C58.1353 482.576 135.707 362.613 135.707 308.38" stroke="#00D9FF" stroke-width="72.5258" stroke-linejoin="round"/>
</svg>
