<svg width="54" height="54" viewBox="0 0 54 54" fill="none" xmlns="http://www.w3.org/2000/svg">
<g clip-path="url(#clip0_116_453)">
<rect width="54" height="54" rx="10" fill="#0F1421"/>
<path d="M57 23.5609C46.8509 36.3522 42.9493 39.7415 40.8998 39.9969C38.3563 40.0897 38.0106 38.0933 38.381 35.7022C38.7761 33.7754 40.8998 29.7592 42.8012 26.0449C46.604 18.6858 47.3448 16.9679 46.4311 15.6679C41.9369 10.375 28.8493 32.9861 24.4785 38.0004C24.2562 38.0933 24.0587 38.1397 23.9352 38.1861C24.2316 32.7771 30.9729 21.7966 30.8494 17.2001C30.8248 15.9697 29.2444 15.2036 28.1578 15.9001C19.762 21.0073 15.0208 28.6217 11.539 34.1236C10.1809 36.2825 8.30416 39.254 7.43988 39.579C7.11887 39.4629 7.04479 39.3933 7.04479 39.3933C6.9707 39.254 6.87193 38.5576 7.81029 35.7022C9.41537 30.6414 18.2804 17.8037 18.2804 12" stroke="#00D9FF" stroke-width="6.99781" stroke-linejoin="round"/>
</g>
<defs>
<clipPath id="clip0_116_453">
<rect width="54" height="54" rx="10" fill="white"/>
</clipPath>
</defs>
</svg>
